# xmcd
#
# Track frame offsets:
# 150
# 11814
# 26361
# 41101
# 55615
# 68612
# 80299
# 91769
# 104556
# 118240
# 131090
# 144142
# 158326
# 170708
# 184215
# 197167
#
# Disc length: 2798 seconds
#
# Revision: 1
# Processed by: cddbd v1.5.1PL2 Copyright (c) Steve Scherf et al.
# Submitted via: Easy CD Ripper v2.37
#
DISCID=d00aec10
DTITLE=The Carter Family - Last Sessions 1934-1941
DYEAR=1998
DGENRE=Country
TTITLE0=I'll Be Home Someday
TTITLE1=Faded Coat of Blue
TTITLE2=Sailor Boy
TTITLE3=Why Do You Cry Little Darling
TTITLE4=You Tied a Love Knot in My Heart
TTITLE5=Lonesome Homesick Blues
TTITLE6=Dark and Stormy Weather
TTITLE7=In the Valley of the Shenandoah
TTITLE8=Girl on the Green Briar Shore
TTITLE9=Something Got a Hold of Me
TTITLE10=Fift Miles of Elbow Room
TTITLE11=Keep on the Firing Line
TTITLE12=Waves on the Sea
TTITLE13=Rambling Boy
TTITLE14=You're Gonna Be Sorry You Let Me Down
TTITLE15=The Mountains of Tennessee
EXTD=
EXTT0=
EXTT1=
EXTT2=
EXTT3=
EXTT4=
EXTT5=
EXTT6=
EXTT7=
EXTT8=
EXTT9=
EXTT10=
EXTT11=
EXTT12=
EXTT13=
EXTT14=
EXTT15=
PLAYORDER=
